<?xml version="1.0" encoding="UTF-8"?><svg id="a" xmlns="http://www.w3.org/2000/svg" xmlns:xlink="http://www.w3.org/1999/xlink" viewBox="0 0 31 31"><defs><style>.f{fill:url(#c);}.f,.g{fill-rule:evenodd;stroke-width:0px;}.g{fill:#fff;}</style><linearGradient id="c" x1="5.25" y1="5.25" x2="25.75" y2="25.75" gradientUnits="userSpaceOnUse"><stop offset="0" stop-color="#f90"/><stop offset="1" stop-color="#c33c1a"/></linearGradient></defs><g id="b"><path id="d" class="f" d="m16,30.36c-.15.09-.33.14-.5.14s-.35-.05-.5-.14l-12.54-7.45c-.29-.17-.46-.47-.46-.8v-13.23c0-.33.18-.63.46-.8L15,.64c.31-.18.7-.18,1.01,0l12.54,7.45c.29.17.46.47.46.8h0v13.23c0,.33-.18.63-.46.8l-1.48.88-11.06,6.57Z"/></g><path id="e" class="g" d="m12.5,19.98l-3-1.83v-5.16l6-3.67,6,3.67v2.29l1.5.92v-3.62c0-.26-.14-.5-.36-.64l-6.75-4.13c-.24-.15-.54-.15-.78,0l-6.75,4.13c-.22.14-.36.38-.36.64v6c0,.26.14.5.36.64l4.14,2.53v-1.76Zm13.5-9.83v10.58c0,.26-.14.5-.36.64l-1.15.7s0-.03,0-.05v-11.45l-9-5.5-9,5.5v9.74l9,5.5,1.42.89-.24.15-.79.48c-.12.07-.26.11-.39.11s-.27-.04-.39-.11l-9.75-5.96c-.22-.14-.36-.38-.36-.64v-10.58c0-.26.14-.5.36-.64L15.11,3.55c.24-.15.54-.15.78,0l9.75,5.96c.22.14.36.38.36.64h0Z"/><path class="g" d="m22.63,17.55l-3.75-2.29c-.24-.15-.54-.15-.78,0l-3.75,2.29c-.22.14-.36.38-.36.64v4.17c0,.26.14.5.36.64l3.75,2.29c.12.07.25.11.39.11s.27-.04.39-.11l3.75-2.29c.22-.14.36-.38.36-.64v-4.17c0-.26-.14-.5-.36-.64Zm-1.14,4.39l-3,1.83-3-1.83v-3.33l3-1.83,3,1.83v3.33Z"/></svg>